<?xml version="1.0" encoding="utf-8"?>
<!-- Generated by IcoMoon.io -->
<!DOCTYPE svg PUBLIC "-//W3C//DTD SVG 1.1//EN" "http://www.w3.org/Graphics/SVG/1.1/DTD/svg11.dtd">
<svg version="1.1" xmlns="http://www.w3.org/2000/svg" xmlns:xlink="http://www.w3.org/1999/xlink" width="48" height="48" viewBox="0 0 48 48">
<path d="M38 36c1.1 0 2 0.9 2 2s-0.9 2-2 2h-28c-1.1 0-2-0.9-2-2s0.9-2 2-2h28zM38 32h-28c-3.308 0-6 2.692-6 6s2.692 6 6 6h28c3.308 0 6-2.692 6-6s-2.692-6-6-6z"></path>
<path d="M38 22c1.1 0 2 0.9 2 2s-0.9 2-2 2h-28c-1.1 0-2-0.9-2-2s0.9-2 2-2h28zM38 18h-28c-3.308 0-6 2.692-6 6s2.692 6 6 6h28c3.308 0 6-2.692 6-6s-2.692-6-6-6z"></path>
<path d="M38 8c1.1 0 2 0.9 2 2s-0.9 2-2 2h-28c-1.1 0-2-0.9-2-2s0.9-2 2-2h28zM38 4h-28c-3.308 0-6 2.692-6 6s2.692 6 6 6h28c3.308 0 6-2.692 6-6s-2.692-6-6-6z"></path>
</svg>
