<?xml version="1.0" encoding="utf-8"?>
<!-- Generated by IcoMoon.io -->
<!DOCTYPE svg PUBLIC "-//W3C//DTD SVG 1.1//EN" "http://www.w3.org/Graphics/SVG/1.1/DTD/svg11.dtd">
<svg version="1.1" xmlns="http://www.w3.org/2000/svg" xmlns:xlink="http://www.w3.org/1999/xlink" width="48" height="48" viewBox="0 0 48 48">
<path d="M38 34h-28c-2.206 0-4 1.794-4 4s1.794 4 4 4h28c2.206 0 4-1.794 4-4s-1.794-4-4-4z" fill="#fff"></path>
<path d="M38 20h-28c-2.206 0-4 1.794-4 4s1.794 4 4 4h28c2.206 0 4-1.794 4-4s-1.794-4-4-4z" fill="#fff"></path>
<path d="M38 6h-28c-2.206 0-4 1.794-4 4s1.794 4 4 4h28c2.206 0 4-1.794 4-4s-1.794-4-4-4z" fill="#fff"></path>
</svg>
